# xmcd
#
# Track frame offsets: 
#        150
#        17485
#        34693
#        52198
#        67953
#        82590
#        107851
#        123641
#        138685
#        161829
#        187268
#
# Disc length: 2678 seconds
#
# Revision: 5
# Processed by: cddbd v1.5.2PL0 Copyright (c) Steve Scherf et al.
# Submitted via: ExactAudioCopy v1.3
#
DISCID=990a740b
DTITLE=Alison Moyet - Voice
DYEAR=2004
DGENRE=Pop
TTITLE0=Windmills Of Your Mind
TTITLE1=The Man I Love
TTITLE2=Almost Blue
TTITLE3=Je Crois Entendre Encore
TTITLE4=What Are You Doing The Rest Of Your Life?
TTITLE5=God Give Me Strength
TTITLE6=The Wraggle Taggle Gypsies-O!
TTITLE7=Dido's Lament: When I Am Laid In Earth
TTITLE8=La Chanson Des Vieux Amants
TTITLE9=Cry Me A River
TTITLE10=Bye Bye Blackbird
EXTD=
EXTT0=
EXTT1=
EXTT2=
EXTT3=
EXTT4=
EXTT5=
EXTT6=
EXTT7=
EXTT8=
EXTT9=
EXTT10=
PLAYORDER=
